# xmcd CD database file generated by freedbAccess_ocx
#
# Track frame offsets:
#       150
#       15595
#       33275
#       46937
#       56479
#       76054
#       94178
#       108390
#       128279
#       145942
#       169697
#       182604
#
# Disc length: 2697 seconds
#
# Revision: 0
# Processed by: cddbd v1.4PL0 Copyright (c) Steve Scherf et al.
# Submitted via: CDnGo 2.00
#
DISCID=880a870c
DTITLE=Nathan James - This Road Is Mine
DYEAR=2003
DGENRE=Blues
TTITLE0=Don'tcha Feel So Good
TTITLE1=Sugar Mama Blues
TTITLE2=Sweet Lovin' Kind
TTITLE3=Hip Shakin' Mama
TTITLE4=Please Slow Down
TTITLE5=Promenade Breakdown
TTITLE6=Woke Up With The Blues In My Fingers
TTITLE7=This Road Is Mine
TTITLE8=Good Thing Blues
TTITLE9=Ain't This A Comeback
TTITLE10=Took My Saviors Hand
TTITLE11=If I Let You Get Away With It Once
EXTD=
EXTT0=
EXTT1=
EXTT2=
EXTT3=
EXTT4=
EXTT5=
EXTT6=
EXTT7=
EXTT8=
EXTT9=
EXTT10=
EXTT11=
PLAYORDER=
